<svg width="14" height="15" viewBox="0 0 14 15" fill="none" xmlns="http://www.w3.org/2000/svg">
<path d="M0.5 13.0568C0.5 13.8702 1.41937 14.3433 2.08124 13.8705L9.86077 8.31373C10.4191 7.91491 10.4191 7.08509 9.86077 6.68627L2.08124 1.12946C1.41937 0.656693 0.500001 1.12982 0.500001 1.94319L0.5 13.0568ZM11 7.5L11 14C11 14.5523 11.4477 15 12 15L13 15C13.5523 15 14 14.5523 14 14L14 1C14 0.447715 13.5523 -3.91405e-08 13 -8.74228e-08L12 -1.74846e-07C11.4477 -2.23128e-07 11 0.447715 11 1L11 7.5Z" fill="#222222"/>
</svg>
