<svg width="30" height="30" viewBox="0 0 30 30" fill="none" xmlns="http://www.w3.org/2000/svg">
<path d="M15.0008 0C6.75041 0 0 6.75041 0 15.0008C0 23.2496 6.75041 30 15.0008 30C23.2496 30 30 23.2496 30 15.0008C30 6.75041 23.3247 0 15.0008 0ZM21.8998 21.6746C21.601 22.1235 21.0755 22.2752 20.6236 21.9764C17.0967 19.7993 12.672 19.3489 7.42155 20.5485C6.89905 20.7017 6.44863 20.3263 6.29848 19.8744C6.14684 19.3489 6.5222 18.9015 6.97413 18.7498C12.672 17.4736 17.6237 18.0006 21.5229 20.4014C22.0484 20.6251 22.1235 21.2242 21.8998 21.6746ZM23.7015 17.5502C23.3247 18.0742 22.6505 18.2994 22.1235 17.924C18.0742 15.4527 11.9258 14.699 7.20084 16.2004C6.60327 16.352 5.92463 16.0502 5.77599 15.4527C5.62434 14.8491 5.92613 14.1735 6.5252 14.0233C11.9994 12.3748 18.7513 13.2005 23.3997 16.0518C23.8502 16.2755 24.0754 17.0247 23.7015 17.5502ZM23.8502 13.3477C19.0501 10.4995 11.025 10.1992 6.44863 11.627C6.1006 11.7273 5.72733 11.6897 5.40634 11.5219C5.08535 11.3542 4.84134 11.0692 4.72499 10.7262C4.62292 10.3777 4.65953 10.0033 4.82714 9.68126C4.99476 9.35918 5.2804 9.11438 5.62434 8.99805C10.9499 7.42305 19.7257 7.72184 25.2765 11.0265C25.9507 11.4003 26.1759 12.3012 25.8005 12.9753C25.4252 13.5008 24.5258 13.723 23.8502 13.3477Z" fill="#222222"/>
</svg>
