<svg width="15" height="15" viewBox="0 0 15 15" fill="none" xmlns="http://www.w3.org/2000/svg">
<path d="M10.5005 14.1517C13.1459 12.9914 15 10.4697 15 7.40134C15 4.33293 13.1459 1.81131 10.5005 0.651001V2.15108C12.2908 3.19063 13.4999 5.18648 13.4999 7.40134C13.4999 9.6162 12.2908 11.612 10.5005 12.6516V14.1517Z" fill="#222222" fill-opacity="0.2"/>
<path d="M10.5005 3.65118V11.1516C11.4193 10.3265 12.0006 8.72969 12.0006 7.40137C12.0006 6.07305 11.4193 4.47622 10.5005 3.65118ZM1.50007 11.1516H3.52293L9.00045 14.8027V0L3.52293 3.65118H1.50007C0.672784 3.65118 0 4.32397 0 5.15126V9.65148C0 10.4788 0.672784 11.1516 1.50007 11.1516Z" fill="#222222"/>
</svg>
