<svg width="15" height="15" viewBox="0 0 15 15" fill="none" xmlns="http://www.w3.org/2000/svg">
<path d="M10.5005 13.3864C10.5005 13.7472 10.8707 13.9871 11.1856 13.811C13.4605 12.5393 15 10.1973 15 7.40134C15 4.60533 13.4605 2.26333 11.1856 0.991634C10.8707 0.815593 10.5005 1.05551 10.5005 1.41629V1.86322C10.5005 2.04141 10.5963 2.20474 10.7458 2.30178C12.4004 3.37619 13.4999 5.28918 13.4999 7.40134C13.4999 9.5135 12.4004 11.4265 10.7458 12.5009C10.5963 12.5979 10.5005 12.7613 10.5005 12.9395V13.3864Z" fill="#222222"/>
<path d="M11.1993 4.52239C10.9773 4.15109 10.5005 4.33954 10.5005 4.77216V10.0306C10.5005 10.4632 10.9773 10.6517 11.1993 10.2804C11.7039 9.43658 12.0006 8.35044 12.0006 7.40137C12.0006 6.4523 11.7039 5.36616 11.1993 4.52239ZM1.50007 11.1516H3.37156C3.47026 11.1516 3.56675 11.1808 3.64888 11.2355L8.22313 14.2846C8.55541 14.5061 9.00045 14.2679 9.00045 13.8686V0.934188C9.00045 0.534855 8.55541 0.296656 8.22313 0.518145L3.64888 3.56723C3.56675 3.62197 3.47026 3.65118 3.37156 3.65118H1.50007C0.672784 3.65118 0 4.32397 0 5.15126V9.65148C0 10.4788 0.672784 11.1516 1.50007 11.1516Z" fill="#222222"/>
</svg>
